<svg xmlns="http://www.w3.org/2000/svg" width="41.514" height="38.92" viewBox="0 0 41.514 38.92">
  <g id="chat" transform="translate(0 -16)">
    <g id="Group_396" data-name="Group 396" transform="translate(0 16)">
      <g id="Group_395" data-name="Group 395">
        <path id="Path_1346" data-name="Path 1346" d="M20.676,16C9.13,16,0,24.266,0,34.244A17,17,0,0,0,4.743,45.875a7.4,7.4,0,0,1-1.954,6.969,1.217,1.217,0,0,0,.86,2.076,13.417,13.417,0,0,0,9.29-3.752,22.952,22.952,0,0,0,7.737,1.319c11.578,0,20.838-8.29,20.838-18.244S32.248,16,20.676,16Zm0,34.071a20.465,20.465,0,0,1-7.6-1.452,1.216,1.216,0,0,0-1.347.309,10.98,10.98,0,0,1-5.459,3.239,9.835,9.835,0,0,0,.741-7.239,1.215,1.215,0,0,0-.3-.514,14.634,14.634,0,0,1-4.3-10.171c0-8.718,8.2-15.827,18.26-15.827,10.149,0,18.422,7.109,18.422,15.827S30.825,50.071,20.676,50.071Z" transform="translate(0 -16)" fill="#fff"/>
      </g>
    </g>
    <g id="Group_398" data-name="Group 398" transform="translate(7.297 30.595)">
      <g id="Group_397" data-name="Group 397">
        <path id="Path_1347" data-name="Path 1347" d="M93.649,196a3.649,3.649,0,1,0,3.649,3.649A3.653,3.653,0,0,0,93.649,196Zm0,4.865a1.216,1.216,0,1,1,1.216-1.216A1.218,1.218,0,0,1,93.649,200.865Z" transform="translate(-90 -196)" fill="#fff"/>
      </g>
    </g>
    <g id="Group_400" data-name="Group 400" transform="translate(17.027 30.595)">
      <g id="Group_399" data-name="Group 399">
        <path id="Path_1348" data-name="Path 1348" d="M213.649,196a3.649,3.649,0,1,0,3.649,3.649A3.653,3.653,0,0,0,213.649,196Zm0,4.865a1.216,1.216,0,1,1,1.216-1.216A1.218,1.218,0,0,1,213.649,200.865Z" transform="translate(-210 -196)" fill="#fff"/>
      </g>
    </g>
    <g id="Group_402" data-name="Group 402" transform="translate(26.919 30.595)">
      <g id="Group_401" data-name="Group 401">
        <path id="Path_1349" data-name="Path 1349" d="M335.649,196a3.649,3.649,0,1,0,3.649,3.649A3.653,3.653,0,0,0,335.649,196Zm0,4.865a1.216,1.216,0,1,1,1.216-1.216A1.218,1.218,0,0,1,335.649,200.865Z" transform="translate(-332 -196)" fill="#fff"/>
      </g>
    </g>
  </g>
</svg>
