<svg xmlns="http://www.w3.org/2000/svg" width="23.941" height="26.756" viewBox="0 0 23.941 26.756">
  <g id="Group_484" data-name="Group 484" transform="translate(-1470.409 -1057.063)">
    <g id="Group_330" data-name="Group 330" transform="translate(1470.409 1057.063)">
      <path id="Path_1187" data-name="Path 1187" d="M1554.072,1250.829l1.966,1.967-2.13,2.13a26.839,26.839,0,0,0,2.741,2.393,26.854,26.854,0,0,0,2.7-2.348l-6.021-6.021,1.966-1.966.747.747.567.567,1.967,1.967.567.566,2.067,2.067,1.749,1.749a27.562,27.562,0,0,1-1.868,2.065,29.487,29.487,0,0,1-3.72,3.144l-.717.512-.716-.512a29.442,29.442,0,0,1-3.765-3.188,27.392,27.392,0,0,1-1.863-2.07l1.749-1.749Z" transform="translate(-1544.679 -1233.609)" fill="#fff"/>
      <path id="Path_1188" data-name="Path 1188" d="M1549.085,1065.458l-1.967-1.967,2.16-2.16-2.682-1.459-2.74,1.491,2.7,2.7,1.966,1.967.567.567.746.747-1.967,1.966-.747-.746-.566-.567-1.966-1.966-.567-.567-2.71-2.71-1.818-1.819,2.547-1.385,4.558-2.48,4.5,2.448,2.547,1.386-1.818,1.818Z" transform="translate(-1534.626 -1057.063)" fill="#fff"/>
      <path id="Path_1189" data-name="Path 1189" d="M1472.839,1130.77l1.818,1.818,3.265,3.266-1.966,1.966-2.768-2.768a21.991,21.991,0,0,0,1.058,3.6q.278.718.6,1.412l1.109-1.109.567-.567,1.967-1.966.566-.566.747-.746,1.966,1.966-1.313,1.313-1.966,1.967-.567.567-1.695,1.695-1.78,1.78a26.231,26.231,0,0,1-1.444-2.489,25.814,25.814,0,0,1-1.1-2.476,21.109,21.109,0,0,1-1.482-6.593l-.009-.561,0-.185Z" transform="translate(-1470.409 -1125.579)" fill="#fff"/>
      <path id="Path_1190" data-name="Path 1190" d="M1651.663,1140.51l1.967-1.966,1.17,1.17q.338-.723.628-1.473a21.93,21.93,0,0,0,1.081-3.71l-2.879,2.879-.567.566-1.966,1.967-.566.567-.747.747-1.967-1.966.747-.747,2.533-2.533.567-.567,5.115-5.115,2.487,1.353v.094l-.01.651a21.11,21.11,0,0,1-1.483,6.593,25.73,25.73,0,0,1-1.13,2.534,26.164,26.164,0,0,1-1.449,2.484l-1.78-1.779Z" transform="translate(-1635.324 -1125.17)" fill="#fff"/>
    </g>
  </g>
</svg>
