<svg id="Group_365" data-name="Group 365" xmlns="http://www.w3.org/2000/svg" width="260" height="24.941" viewBox="0 0 260 24.941">
  <path id="Path_1126" data-name="Path 1126" d="M6855.659,779.033v3.622h19.186v11.183a4.3,4.3,0,0,1-1.368,2.976,4.243,4.243,0,0,1-3.057,1.247H6848.3v-5.912h19.186v-3.622H6848.3V777.343a4.233,4.233,0,0,1,1.388-3,4.3,4.3,0,0,1,3.037-1.227h22.122v5.913Z" transform="translate(-6848.298 -773.12)" fill="#fff"/>
  <path id="Path_1127" data-name="Path 1127" d="M7007.51,773.12a4.289,4.289,0,0,1,3.117,1.287,4.24,4.24,0,0,1,1.307,3.137v20.516h-7.4v-8.77h-11.785v8.77h-7.361V777.544a4.4,4.4,0,0,1,4.424-4.424Zm-2.976,10.258v-4.346h-11.785v4.346Z" transform="translate(-6956.549 -773.12)" fill="#fff"/>
  <path id="Path_1128" data-name="Path 1128" d="M7130.984,779.033v4.346h16.25v5.912h-16.25v8.77h-7.36V777.544a4.4,4.4,0,0,1,4.424-4.424h22.122v5.913Z" transform="translate(-7065.706 -773.12)" fill="#fff"/>
  <path id="Path_1129" data-name="Path 1129" d="M7268.647,779.033v3.622h15.888v5.872h-15.888v3.622h19.187v5.912h-22.122a4.4,4.4,0,0,1-4.425-4.424V777.544a4.4,4.4,0,0,1,4.425-4.424h22.122v5.913Z" transform="translate(-7174.409 -773.12)" fill="#fff"/>
  <path id="Path_1130" data-name="Path 1130" d="M7426.835,773.12v5.913h-9.613v19.028h-7.36V779.033h-9.572V773.12Z" transform="translate(-7284.17 -773.12)" fill="#fff"/>
  <path id="Path_1131" data-name="Path 1131" d="M7562.395,773.12v20.517a4.395,4.395,0,0,1-4.424,4.424h-22.122v-1.488a4.288,4.288,0,0,1,1.287-3.117,4.236,4.236,0,0,1,3.137-1.307h13.273a1.464,1.464,0,0,0,1.046-.422,6.606,6.606,0,0,0,.442-2.435v-.764h-14.762a4.4,4.4,0,0,1-4.424-4.424V773.12h7.36v9.534h10.337a1.511,1.511,0,0,0,1.488-1.488V773.12Z" transform="translate(-7391.213 -773.12)" fill="#fff"/>
  <path id="Path_1132" data-name="Path 1132" d="M7702.161,773.12v5.913h-9.613v19.028h-7.36V779.033h-9.573V773.12Z" transform="translate(-7501.578 -773.12)" fill="#fff"/>
  <path id="Path_1133" data-name="Path 1133" d="M7819.3,779.033v3.622h15.888v5.872H7819.3v3.622h19.186v5.912h-22.122a4.4,4.4,0,0,1-4.425-4.424V777.544a4.4,4.4,0,0,1,4.425-4.424h22.122v5.913Z" transform="translate(-7609.224 -773.12)" fill="#fff"/>
  <path id="Path_1134" data-name="Path 1134" d="M7969.925,785.591l8.607,12.47H7969.2l-4.468-6.646-5.035,6.646h-9.332l8.607-12.47-8.607-12.471h9.332l5.035,6.267,4.468-6.267h9.331Z" transform="translate(-7718.532 -773.12)" fill="#fff"/>
</svg>
