<svg id="Component_13_1" data-name="Component 13 – 1" xmlns="http://www.w3.org/2000/svg" width="13.901" height="13.901" viewBox="0 0 13.901 13.901">
  <path id="Path_3" data-name="Path 3" d="M6.95,1.236a21.311,21.311,0,0,1,2.78.077,3.582,3.582,0,0,1,1.313.232,2.712,2.712,0,0,1,1.313,1.313,3.582,3.582,0,0,1,.232,1.313c0,.7.077.927.077,2.78a21.311,21.311,0,0,1-.077,2.78,3.582,3.582,0,0,1-.232,1.313,2.712,2.712,0,0,1-1.313,1.313,3.582,3.582,0,0,1-1.313.232c-.7,0-.927.077-2.78.077a21.311,21.311,0,0,1-2.78-.077,3.582,3.582,0,0,1-1.313-.232,2.712,2.712,0,0,1-1.313-1.313,3.582,3.582,0,0,1-.232-1.313c0-.7-.077-.927-.077-2.78a21.311,21.311,0,0,1,.077-2.78,3.582,3.582,0,0,1,.232-1.313,2.774,2.774,0,0,1,.541-.772,1.306,1.306,0,0,1,.772-.541A3.582,3.582,0,0,1,4.17,1.313a21.311,21.311,0,0,1,2.78-.077M6.95,0A22.818,22.818,0,0,0,4.093.077a4.768,4.768,0,0,0-1.7.309,3.023,3.023,0,0,0-1.236.772A3.023,3.023,0,0,0,.386,2.394a3.519,3.519,0,0,0-.309,1.7A22.818,22.818,0,0,0,0,6.95,22.818,22.818,0,0,0,.077,9.808a4.768,4.768,0,0,0,.309,1.7,3.023,3.023,0,0,0,.772,1.236,3.023,3.023,0,0,0,1.236.772,4.768,4.768,0,0,0,1.7.309A22.818,22.818,0,0,0,6.95,13.9a22.818,22.818,0,0,0,2.857-.077,4.768,4.768,0,0,0,1.7-.309,3.24,3.24,0,0,0,2.008-2.008,4.768,4.768,0,0,0,.309-1.7c0-.772.077-1,.077-2.857a22.818,22.818,0,0,0-.077-2.857,4.768,4.768,0,0,0-.309-1.7,3.023,3.023,0,0,0-.772-1.236A3.023,3.023,0,0,0,11.507.386a4.768,4.768,0,0,0-1.7-.309A22.818,22.818,0,0,0,6.95,0m0,3.4A3.5,3.5,0,0,0,3.4,6.95,3.552,3.552,0,1,0,6.95,3.4m0,5.869A2.275,2.275,0,0,1,4.634,6.95,2.275,2.275,0,0,1,6.95,4.634,2.275,2.275,0,0,1,9.267,6.95,2.275,2.275,0,0,1,6.95,9.267m3.707-6.873a.849.849,0,1,0,.849.849.857.857,0,0,0-.849-.849" fill="#fff" fill-rule="evenodd"/>
</svg>
