<svg xmlns="http://www.w3.org/2000/svg" width="13.452" height="13.452" viewBox="0 0 13.452 13.452">
  <g id="magnifier" opacity="0.44">
    <g id="Group_460" data-name="Group 460" transform="translate(0 0)">
      <path id="Path_1354" data-name="Path 1354" d="M1.6,9.315A5.458,5.458,0,0,1,9.316,1.6a5.352,5.352,0,0,1,.821,6.587.23.23,0,0,0,.032.274l2.785,2.785a1.272,1.272,0,0,1,.195,1.821l-.085.085a1.272,1.272,0,0,1-1.821-.195L8.464,10.173a.233.233,0,0,0-.279-.038A5.352,5.352,0,0,1,1.6,9.315ZM8.308,8.307a4.033,4.033,0,1,0-5.7,0A4.038,4.038,0,0,0,8.308,8.307Z" transform="translate(-0.001 0)" fill="#8f9395"/>
      <g id="Group_459" data-name="Group 459" transform="translate(3.486 2.184)">
        <path id="Path_1355" data-name="Path 1355" d="M118.225,53.356a.564.564,0,0,0,.519-.783,3.55,3.55,0,0,0-4.648-1.884.563.563,0,1,0,.439,1.038,2.422,2.422,0,0,1,3.171,1.285A.564.564,0,0,0,118.225,53.356Z" transform="translate(-113.752 -50.409)" fill="#8f9395"/>
      </g>
    </g>
  </g>
</svg>
