<svg id="Group_403" data-name="Group 403" xmlns="http://www.w3.org/2000/svg" width="141.517" height="127.249" viewBox="0 0 141.517 127.249">
  <g id="Group_366" data-name="Group 366" transform="translate(31.14)">
    <path id="Path_1295" data-name="Path 1295" d="M132.93,89.727V90.2h55.1a19.014,19.014,0,0,0-18.954-18.9l-9.657-.027a18.98,18.98,0,0,1-2.359-.152l-7.219,7.17a4.2,4.2,0,1,1-5.945-5.942l4.591-4.572a19.084,19.084,0,0,1-3.02-2.668l-4.216,4.256a4.2,4.2,0,0,1-5.945-5.941l5.895-5.95a19.179,19.179,0,0,1-.741-5.277L140.4,28.05a2.241,2.241,0,0,0-2.242-2.24H134.5a12.076,12.076,0,0,0-12.08,12.073v3.541H112.6V36.956a4.2,4.2,0,0,0-8.408,0V73.024h12.022a16.726,16.726,0,0,1,16.712,16.7Z" transform="translate(-104.195 -25.81)" fill="#fff"/>
    <path id="Path_1296" data-name="Path 1296" d="M124.632,235.513v-.476a8.423,8.423,0,0,0-8.416-8.411H104.194v8.887Z" transform="translate(-104.194 -171.121)" fill="#fff"/>
  </g>
  <g id="Group_369" data-name="Group 369" transform="translate(0 72.588)">
    <g id="Group_367" data-name="Group 367">
      <path id="Path_1297" data-name="Path 1297" d="M470.911,302.417l-13.993-13.986v11.883l8.048,8.044a4.2,4.2,0,0,0,5.945-5.941Z" transform="translate(-330.626 -288.431)" fill="#fff"/>
      <path id="Path_1298" data-name="Path 1298" d="M15.144,288.475,1.231,302.38a4.2,4.2,0,0,0,5.945,5.941l7.968-7.964V288.475Z" transform="translate(0 -288.463)" fill="#fff"/>
    </g>
    <g id="Group_368" data-name="Group 368" transform="translate(23.441 0.096)">
      <path id="Path_1299" data-name="Path 1299" d="M180.42,299.05l7.675-10.272h-83.76l7.675,10.272Z" transform="translate(-98.938 -288.778)" fill="#fff"/>
      <path id="Path_1300" data-name="Path 1300" d="M171.695,323.049a4.149,4.149,0,0,1-3.324,1.665H95.8a4.149,4.149,0,0,1-3.324-1.665l-7.668-10.264v43.728a3.966,3.966,0,0,0,3.679,4.2h87.2a3.966,3.966,0,0,0,3.679-4.2V312.785Z" transform="translate(-84.808 -306.149)" fill="#fff"/>
    </g>
  </g>
</svg>
