<svg id="wardrobe" xmlns="http://www.w3.org/2000/svg" width="118.384" height="112.548" viewBox="0 0 118.384 112.548">
  <path id="Path_1292" data-name="Path 1292" d="M114.916.5a3.389,3.389,0,0,0-3.468,3.3v3.3H6.937V3.8A3.389,3.389,0,0,0,3.468.5,3.389,3.389,0,0,0,0,3.8V17.019a3.389,3.389,0,0,0,3.468,3.3,3.389,3.389,0,0,0,3.468-3.3v-3.3H41.851V21.04L24.128,25.212C10.372,28.488,0,40.286,0,54.649v48.488a3.389,3.389,0,0,0,3.468,3.3h10.4v3.3a3.389,3.389,0,0,0,3.468,3.3H38.382a3.389,3.389,0,0,0,3.468-3.3v-3.3h6.937v3.3a3.389,3.389,0,0,0,3.468,3.3h20.81a3.389,3.389,0,0,0,3.468-3.3v-3.3h10.4a3.389,3.389,0,0,0,3.468-3.3V79.79h24.509a3.389,3.389,0,0,0,3.468-3.3V35.393a10,10,0,0,0-7.889-9.617L90.407,21.04V13.715h21.041v3.3a3.472,3.472,0,0,0,6.937,0V3.8A3.389,3.389,0,0,0,114.916.5Zm-80,105.941H20.81V63.271a3.472,3.472,0,0,0-6.937,0V99.833H6.937V54.649c0-11.194,8.075-20.454,18.864-23.024l9.113-2.145Zm13.873-6.608H41.851V46.753h6.937Zm0-59.688H41.851v-12.3l3.463-.815,3.473.827Zm0-19.1V13.715H83.47v7.332l-17.341,4.13ZM83.47,99.833H76.533V63.271a3.472,3.472,0,0,0-6.937,0v43.169H55.724V29.51L64.6,31.623C75.357,34.185,83.47,43.414,83.47,54.649Zm22.4-68.34,2.947.695a3.333,3.333,0,0,1,2.627,3.205v37.79H90.407V54.649A29.058,29.058,0,0,0,86.544,40.14c.132,0,.263.005.395.005a24.662,24.662,0,0,0,18.935-8.652ZM98.1,29.662a18.085,18.085,0,0,1-18.233,2.447,31.649,31.649,0,0,0-3.448-2.573l10.52-2.505Z" transform="translate(0 -0.5)" fill="#fff"/>
</svg>
