<svg xmlns="http://www.w3.org/2000/svg" width="146.916" height="108.376" viewBox="0 0 146.916 108.376">
  <g id="Group_503" data-name="Group 503" transform="translate(-125.5 -3299.944)">
    <path id="Path_1302" data-name="Path 1302" d="M605.3,511.612c-19.965-.132-36.551-16.87-36.252-36.579a36.573,36.573,0,0,1,37.12-35.961c19.5.169,35.845,16.924,35.643,36.547A36.607,36.607,0,0,1,605.3,511.612ZM626.7,455.6c-11.259-13.227-33.277-11.872-42.276.03.87.21,1.658.424,2.458.593,6.745,1.42,10.176,5.582,10.222,12.429.011,1.5.11,3.01-.024,4.5a2.038,2.038,0,0,0,2.188,2.544,82.545,82.545,0,0,0,8.96.409c5.551-.264,5.544-.393,5.547-6.005v-1.407c.1-6.886,3.523-11.065,10.214-12.47C624.788,456.052,625.581,455.853,626.7,455.6Zm-14.935,37.319c3.272,1.318,6.484,2.523,9.619,3.905,2.274,1,3.816.329,5.384-1.444,6.824-7.715,9.3-16.566,7.142-26.637-1.475-6.9-1.846-7.064-8.691-5.484-3.18.735-4.21,1.97-4.248,5.29-.04,3.38.175,6.773-.084,10.133a10.715,10.715,0,0,1-1.682,5.156C617.063,486.878,614.5,489.629,611.764,492.914Zm-12.512,0c-2.6-3-4.646-5.427-6.754-7.791a10.151,10.151,0,0,1-2.612-7.729,55.278,55.278,0,0,0-.067-9.265c-.159-1.474-1.057-3.533-2.215-4.088-2.213-1.062-4.838-1.318-7.325-1.711-.439-.07-1.231.7-1.522,1.272-5.169,9.953-2.105,25.373,6.557,32.8a3.379,3.379,0,0,0,2.7.755c3.7-1.242,7.309-2.728,11.23-4.234Zm16.054,9.605c-3.089-1.647-5.873-3.166-8.7-4.611a2.341,2.341,0,0,0-1.773-.245c-3.064,1.536-6.066,3.194-9.179,4.861C601.07,505.178,609.909,505.179,615.307,502.519Zm-9.837-14.1,5.171-4.95H600.221Z" transform="translate(-406.811 2860.873)" fill="#fff"/>
    <path id="Path_1303" data-name="Path 1303" d="M356.7,1006.961v-4.493H343.4v4.441h-5.373v-2.2c0-4.249-.04-8.5.013-12.744a6.154,6.154,0,0,1,6.2-6.342c5.565-.086,11.13-.024,16.695-.018a7.915,7.915,0,0,1,.954.126v21.231Zm-13.163-10.1h13.024V991.1a2,2,0,0,0-.459-.159q-3.768-.025-7.535-.036c-5.613,0-5.613,0-5.137,5.691A1.388,1.388,0,0,0,343.535,996.858Z" transform="translate(-212.509 2401.261)" fill="#fff"/>
    <path id="Path_1304" data-name="Path 1304" d="M523.42,985.653h9.594c2.452,0,4.9-.016,7.355,0,4.164.035,6.715,2.571,6.765,6.7,0,.6-.01,1.2,0,1.793.076,3.436-1.684,5.576-5.369,6.905l6.233,5.5c-.1.184-.2.369-.3.552-2.051,0-4.1.038-6.153-.032a2.214,2.214,0,0,1-1.178-.693,13.238,13.238,0,0,1-2.258-2.3c-2.331-3.547-5.737-3.5-9.553-2.926v5.856H523.42Zm5.247,9.983H539.5c2.269,0,2.3-.04,2.3-2.313,0-2.337-.017-2.356-2.436-2.361h-10.7Z" transform="translate(-368.44 2401.203)" fill="#fff"/>
    <path id="Path_1305" data-name="Path 1305" d="M704.61,985.594h11.709c1.908,0,3.827-.049,5.738.014a6.176,6.176,0,0,1,6.241,6.29c.06,3.046.075,6.1-.018,9.144a6.166,6.166,0,0,1-5.61,5.977c-.533.053-1.075.032-1.612.032H704.61Zm5.3,5.312v10.812c4.056,0,7.982.036,11.9-.056a1.7,1.7,0,0,0,1.151-1.191c.107-2.741.115-5.49,0-8.228a1.84,1.84,0,0,0-1.254-1.283C717.835,990.863,713.965,990.906,709.906,990.906Z" transform="translate(-520.821 2401.262)" fill="#fff"/>
    <path id="Path_1306" data-name="Path 1306" d="M896.291,985.626c1.733,0,3.466-.022,5.2,0,3.942.062,6.53,2.608,6.581,6.508q.057,4.212,0,8.427a6.243,6.243,0,0,1-6.458,6.457q-5.466.081-10.934,0a6.207,6.207,0,0,1-6.382-6.509q-.043-4.213,0-8.427a6.215,6.215,0,0,1,6.436-6.452C892.586,985.593,894.439,985.626,896.291,985.626Zm-.219,16.075c1.674,0,3.349-.046,5.02.016,1.251.045,1.7-.486,1.673-1.7-.052-2.509-.037-5.02,0-7.529.013-1.033-.374-1.561-1.456-1.555q-5.109.024-10.217,0c-1.065,0-1.515.5-1.512,1.528.011,2.569.018,5.14,0,7.708-.011,1.162.55,1.582,1.665,1.55C892.844,1001.668,894.46,1001.7,896.072,1001.7Z" transform="translate(-671.919 2401.231)" fill="#fff"/>
    <path id="Path_1307" data-name="Path 1307" d="M1084.068,999.177V985.662h5.174v21.172c-2.76.285-5.183.459-7.5-2.067-3.417-3.727-7.443-6.894-10.812-9.934v12h-5.247V985.7c2.84-.372,5.341-.5,7.519,2.166,2.862,3.5,6.236,6.6,9.391,9.871C1082.971,998.126,1083.38,998.5,1084.068,999.177Z" transform="translate(-824.481 2401.329)" fill="#fff"/>
    <path id="Path_1309" data-name="Path 1309" d="M1233.75,987.933a2.46,2.46,0,0,1,.3-1.186,2.214,2.214,0,0,1,.819-.862,2.188,2.188,0,0,1,2.261,0,2.225,2.225,0,0,1,.819.862,2.525,2.525,0,0,1,0,2.385,2.251,2.251,0,0,1-.82.862,2.17,2.17,0,0,1-2.255,0,2.243,2.243,0,0,1-.817-.862A2.448,2.448,0,0,1,1233.75,987.933Zm.385,0a2.07,2.07,0,0,0,.237.973,1.858,1.858,0,0,0,.668.727,1.8,1.8,0,0,0,1.908,0,1.862,1.862,0,0,0,.669-.723,2.13,2.13,0,0,0,0-1.953,1.842,1.842,0,0,0-.671-.722,1.75,1.75,0,0,0-.954-.27,1.781,1.781,0,0,0-.935.259,1.84,1.84,0,0,0-.677.714A2.054,2.054,0,0,0,1234.134,987.933Zm2.875.42a.955.955,0,0,1-.277.738,1.113,1.113,0,0,1-.782.256,1.023,1.023,0,0,1-.8-.337,1.317,1.317,0,0,1-.3-.906v-.358a1.273,1.273,0,0,1,.3-.886,1.024,1.024,0,0,1,.795-.337,1.1,1.1,0,0,1,.8.261.964.964,0,0,1,.273.733h-.493a.555.555,0,0,0-.146-.436.611.611,0,0,0-.423-.132.529.529,0,0,0-.45.214.953.953,0,0,0-.159.571v.388a.943.943,0,0,0,.159.583.53.53,0,0,0,.452.213.618.618,0,0,0,.423-.127.567.567,0,0,0,.143-.439Z" transform="translate(-965.828 2401.266)" fill="#fff"/>
  </g>
</svg>
