<svg id="tee_gee" data-name="tee%gee" xmlns="http://www.w3.org/2000/svg" width="163" height="66.941" viewBox="0 0 163 66.941">
  <path id="Path_1335" data-name="Path 1335" d="M840.6,871.436v19.189h-2.13q-7.969,0-15.936,0c-3.569,0-4.933-.909-6.489-4.237-.115.026-.307.018-.341.087-1.545,3.169-4.087,4.382-7.564,4.188-3.009-.167-6.035-.034-9.245-.034v-6.061c2.316,0,4.648.029,6.978,0,4.627-.068,4.36.875,4.341-4.631-.016-4.477,0-8.967,0-13.6h5.722v12.578c.7-.758,1.026-1.093,1.331-1.45a5.524,5.524,0,0,1,4.452-2.052c3.541.028,7.083.008,10.623.008h2.138c.635-2.963.434-3.231-2.369-3.239-4.206-.012-8.411,0-12.616,0h-2.329v-5.876c.556-.038,1.186-.117,1.815-.118,4.8-.011,9.592.041,14.38-.03a7.373,7.373,0,0,1,5.315,1.753c-.109-.647-.182-1.085-.271-1.636h6.4l7.169,12.49,7.243-12.536h6.613c-.407.77-.729,1.391-1.073,1.993-2.664,4.674-5.262,9.386-8.041,13.992a8.912,8.912,0,0,0-1.476,5.623c.072.8.011,1.614.011,2.6h-6.521a11.238,11.238,0,0,1-.109-1.932,11.134,11.134,0,0,0-2.014-7.475c-2.012-3.147-3.759-6.461-5.62-9.7Zm-5.893,9.739h-4.663c-2.352,0-4.7,0-7.054.014-1.15,0-1.492.7-1.469,1.741a1.316,1.316,0,0,0,1.492,1.483h11.7Z" transform="translate(-717.549 -823.745)" fill="#fff"/>
  <path id="Path_1336" data-name="Path 1336" d="M847.308,553.72h18.745c.1.16.235.281.235.4,0,7.011.175,14.027-.065,21.027-.282,8.24-4.454,13.643-11.683,15.548a27.166,27.166,0,0,1-6.113.883c-4.572.136-9.15.041-13.726.029a4.993,4.993,0,0,1-.861-.156V573.37h13.468Z" transform="translate(-747.749 -553.692)" fill="#fff"/>
  <path id="Path_1337" data-name="Path 1337" d="M527.092,553.51h18.7v19.546h13.586v18.1c-.242.121-.369.24-.5.239-5.669-.08-11.364.136-17-.332-8.818-.724-14.342-6.446-14.719-15.3C526.842,568.416,527.092,561.047,527.092,553.51Z" transform="translate(-482.533 -553.51)" fill="#fff"/>
  <path id="Path_1338" data-name="Path 1338" d="M247.814,884.584v6.052c-.65.053-1.221.136-1.783.136-4.945.011-9.895-.126-14.834.05a6.665,6.665,0,0,1-7.071-7.039c.043-2.952.012-5.905,0-8.857,0-.722-.061-1.442-.1-2.237a11.358,11.358,0,0,0-1.188-.136c-2.5-.011-5,0-7.72,0v18.086h-6.447V872.617H199.23v-6.052h25.029c.057,1.017.109,1.959.176,3.178.479-.578.806-1,1.164-1.4a5.484,5.484,0,0,1,4.257-2c4.428.02,8.856-.018,13.285.015a5.455,5.455,0,0,1,5.581,4.675,19.617,19.617,0,0,1,.206,4.406c-.231,3.946-2.407,6.07-6.35,6.177-3.245.09-6.5.022-9.742.024h-2.6v2.953Zm-17.7-8.869c3.824,0,7.494-.024,11.163.015,1.2.012,2.047-.248,2.035-1.646s-.906-1.636-2.076-1.628c-2.868.031-5.738,0-8.608.012C230.011,872.481,229.793,872.744,230.117,875.715Z" transform="translate(-199.23 -823.901)" fill="#fff"/>
  <path id="Path_1339" data-name="Path 1339" d="M593.458,884.44v5.783a15.739,15.739,0,0,1-1.686.18c-5.019.015-10.039.034-15.058,0-4.349-.029-6.866-2.545-6.9-6.881-.03-3.765.1-7.532-.037-11.292a6.079,6.079,0,0,1,6.409-6.308c4.121.214,8.263.03,12.4.054,3.088.019,5.249,1.682,5.761,4.713a18.12,18.12,0,0,1,.117,5.272c-.429,3.33-2.567,5.155-6.052,5.265-3.391.11-6.783.031-10.184.034h-2.469v2.959C581.639,884.557,587.5,884.177,593.458,884.44Zm-17.71-9.1c3.96,0,7.775.034,11.589-.018a1.538,1.538,0,0,0,1.39-2.421,2.629,2.629,0,0,0-1.864-.766c-2.865-.08-5.734-.042-8.6-.034C575.593,872.113,575.452,872.285,575.748,875.343Z" transform="translate(-519.505 -823.533)" fill="#fff"/>
  <path id="Path_1340" data-name="Path 1340" d="M1245.621,866.314V872.3c-2.17,0-4.273-.009-6.376,0-2.654.015-2.656.023-2.66,2.747,0,2.948.028,5.9-.008,8.847-.053,4.262-2.656,6.824-6.941,6.855-2.724.02-5.449,0-8.366,0v-6.061h6.24c2.7-.008,2.713-.014,2.713-2.7.008-2.949-.031-5.9.011-8.846.063-4.341,2.6-6.82,6.919-6.833C1239.937,866.307,1242.72,866.314,1245.621,866.314Z" transform="translate(-1082.621 -823.876)" fill="#fff"/>
  <path id="Path_1341" data-name="Path 1341" d="M1352.85,1009.122a2.61,2.61,0,0,1,2.687-2.723,2.751,2.751,0,0,1-.072,5.5A2.584,2.584,0,0,1,1352.85,1009.122Zm4.833.012a2.152,2.152,0,0,0-2.128-2.293,2.317,2.317,0,0,0-.015,4.629,2.172,2.172,0,0,0,2.143-2.342Z" transform="translate(-1196.35 -944.961)" fill="#fff"/>
  <path id="Path_1342" data-name="Path 1342" d="M1366.651,1019.243h-.333v.907h-.618v-2.563h1.008a1.129,1.129,0,0,1,.712.2.69.69,0,0,1,.258.571.841.841,0,0,1-.108.442.766.766,0,0,1-.339.286l.535,1.034v.027h-.661Zm-.333-.473h.39a.353.353,0,0,0,.265-.094.419.419,0,0,0,0-.518.346.346,0,0,0-.265-.095h-.389Z" transform="translate(-1207.457 -954.63)" fill="#fff"/>
</svg>
