<svg id="result_1" data-name="result 1" xmlns="http://www.w3.org/2000/svg" width="229.622" height="21.741" viewBox="0 0 229.622 21.741">
  <path id="Path_1310" data-name="Path 1310" d="M259.038,708.341H243a130.89,130.89,0,0,0,9.442-21.2c.134-.383.544-.328.936-.326h29.532a10.6,10.6,0,0,1,5.974,1.445c1.855,1.205,2.216,2.224,1.3,4.264-3.045,6.773-1.932,5.724-9.14,6.916a22.888,22.888,0,0,0,3.73,8.969c-4.8,0-9.507-.018-14.216.014a1.511,1.511,0,0,1-1.7-1.251c-.7-2.289-1.5-4.548-2.328-6.8-.489-1.329-3.751-1.843-4.346-.6C260.891,702.482,259.058,705,259.038,708.341Zm5.383-12.887h6.315c3.673-.014,4.383-.658,4.994-4.59-1.57-.728-3.253-.4-4.884-.418-4.807-.045-4.807-.018-6.478,4.554a4.338,4.338,0,0,0,.053.454Z" transform="translate(-243 -686.811)" fill="#fff"/>
  <path id="Path_1311" data-name="Path 1311" d="M902.535,716.816c-1.57,3.4-3.064,6.653-4.548,9.909-1.04,2.281-.891,2.509,1.651,2.638,5.907.3,5.948.318,8.359-5.065,1.058-2.356,2.723-4.537,2.552-7.475h14.646c-1.873,5.3-5.1,9.986-6.464,15.7a55.327,55.327,0,0,0-5.911.039c-3.3.344-6.507-.693-9.872-.175s-6.871.128-10.308.135a18.174,18.174,0,0,1-4.768-.42,10.342,10.342,0,0,1-2.032-.7c-2.218-1.135-2.66-2.375-1.651-4.7.858-1.977,1.743-3.948,2.709-5.873a6.666,6.666,0,0,0,.84-4.03Z" transform="translate(-757.906 -710.921)" fill="#fff"/>
  <path id="Path_1312" data-name="Path 1312" d="M510.583,728.907c-.874,2.183-2.159,3.286-4.8,3.21-7.2-.21-14.4-.071-21.594-.08a15.8,15.8,0,0,1-5.889-.856c-3.049-1.194-3.649-2.652-2.324-5.579.785-1.747,1.633-3.469,2.389-5.23a6.106,6.106,0,0,1,4.446-3.657,14.808,14.808,0,0,1,3.551-.514c7.2.016,14.4,0,21.605.02a9.808,9.808,0,0,1,5.3,1.282c1.714,1.064,2.114,2.206,1.466,4.064-.051.151-.149.283-.21.43-1.5,3.691-1.5,3.691-5.444,3.691H492.5a12.17,12.17,0,0,1-1.439,0c-1.537-.183-2.055.889-2.116,2.018-.069,1.286,1.178,1.115,1.963,1.117,6,.024,12-.012,18-.018C509.454,728.795,510.005,728.557,510.583,728.907Zm-9.226-9.226c-1.981-.785-4.069-.451-6.1-.43-2.632.027-2.894.312-3.8,3.267h6.932c2.42-.018,2.434-.035,2.976-2.843Z" transform="translate(-429.704 -710.431)" fill="#fff"/>
  <path id="Path_1313" data-name="Path 1313" d="M678.9,728.69c6.1.406,12.02.3,17.938.261,1,0,2.7.444,2.7-1.113,0-1.673-1.712-.932-2.678-.982-3.673-.173-7.363.2-11.032-.3a6.429,6.429,0,0,1-2.923-.982,2.57,2.57,0,0,1-1.105-3.292c1.205-3.7,3.608-5.872,7.524-5.909,9.124-.088,18.257-.037,27.377-.031.135,0,.271.137.56.291-.086.938-.181,1.945-.29,3.141-5.846-.691-11.6-.414-17.342-.451a14.694,14.694,0,0,0-2.381.208c-.369.057-.807.21-.823.713a.9.9,0,0,0,.878.95,12.92,12.92,0,0,0,1.908.151c2.562.016,5.124-.024,7.685.018a24.322,24.322,0,0,1,4.066.285c3.225.6,3.975,2.259,2.835,5.314a7.1,7.1,0,0,1-6.044,4.78,18.317,18.317,0,0,1-2.856.338c-8.724.026-17.45.016-26.323.016C678.226,730.992,678.593,729.964,678.9,728.69Z" transform="translate(-592.955 -710.526)" fill="#fff"/>
  <path id="Path_1314" data-name="Path 1314" d="M1211.464,706.6h-5.524c.954-2.945.956-3.019,3.765-2.933,1.912.057,3.708.167,4.234-2.287.177-.819.927-.785,1.571-.785,4.069-.012,8.141,0,12.367,0,.3.911-1.1,1.684-.757,3.041h8.474c-.877,3.021-.877,3.023-3.49,3.027-1.841,0-3.683.045-5.522-.018a1.709,1.709,0,0,0-1.837,1.178c-.9,2.047-1.881,4.058-2.762,6.113-.709,1.657-.428,2.1,1.425,2.289a66.528,66.528,0,0,0,7.868.041c-.589,3.186-.652,3.251-3.59,3.241-4.164-.014-8.325-.025-12.487-.077a12.115,12.115,0,0,1-5.145-.982c-2.322-1.113-2.839-2.5-1.792-4.868C1209.222,711.39,1210.245,709.246,1211.464,706.6Z" transform="translate(-1016.909 -697.888)" fill="#fff"/>
  <path id="Path_1315" data-name="Path 1315" d="M1087.13,708.67a143.713,143.713,0,0,0,9.815-21.46H1111a8.178,8.178,0,0,1-1.19,3.161q-3.062,6.773-6.219,13.5a8.53,8.53,0,0,0-1.211,4.8Z" transform="translate(-921.422 -687.132)" fill="#fff"/>
  <text id="_" data-name="®" transform="translate(223.622 6.204)" fill="#fff" font-size="6" font-family="SegoeUIBlack, Segoe UI"><tspan x="0" y="0">®</tspan></text>
</svg>
