<svg id="bic" xmlns="http://www.w3.org/2000/svg" width="121.6" height="102.868" viewBox="0 0 121.6 102.868">
  <path id="Path_1316" data-name="Path 1316" d="M449.682,417.809c-2.142.172-4.361.217-6.523.589a5.394,5.394,0,0,0-2.432,1.569c-.86.813-1.607,1.071-2.683.039.75-2.14,1.466-4.392,2.363-6.571a2.064,2.064,0,0,1,1.59-.847c5.395-.141,10.794-.15,16.189-.282a7.311,7.311,0,0,0,5.2-1.816c.346-.333,1.086-.256,1.644-.367l.282.4c-.97,2.2-1.883,4.429-2.956,6.577a2.28,2.28,0,0,1-1.587.777c-.974.121-2-.092-2.966.071a1.745,1.745,0,0,0-1.2,1.066c-1.811,12.949-8.66,19.389-21.706,20.321-.141.01-.282.055-.78.153a32.787,32.787,0,0,0,1.8,3.521,27.464,27.464,0,0,0,16.806,11.668c13.417,3.248,24.961-.076,34.245-10.512.49-.551.989-1.092,1.679-1.853a26.3,26.3,0,0,1,2.361,3.082c.2.343-.209,1.182-.541,1.652-5.562,7.875-13.2,12.483-22.615,14.3s-18.559,1.048-27.2-3.3c-7.852-3.954-13.444-9.952-16.083-18.515a3.639,3.639,0,0,0-2.01-1.695c-4.161-1.712-7.813-4.049-10.426-7.806a15.467,15.467,0,0,1-3.008-6.7,5.571,5.571,0,0,0-.359-1.1l-7.694,4.337c.641.2,1.285.4,1.926.61a23.048,23.048,0,0,1,10.094,6.007c7.672,8.191,4.411,21.108-6.406,25.408a28.041,28.041,0,0,1-10.139,2.028c-8.767.086-17.536.041-26.305.044a5.171,5.171,0,0,1-.624-.078c-.283-1.016-.323-1.8.911-2.236,1.654-.592,2.2-2.053,2.411-3.631a23.349,23.349,0,0,0,.172-3.107q-.013-21.31-.064-42.617a47.1,47.1,0,0,0-.345-5.021,3.43,3.43,0,0,0-2.118-2.825c-.506-.25-.719-1.093-1.063-1.665a4.984,4.984,0,0,1,1.48-.549c5.546-.12,11.095-.274,16.641-.244A46.1,46.1,0,0,1,402,400.744a15.563,15.563,0,0,1,8.235,5.779,7.745,7.745,0,0,0,.565.688c.1.109.22.195.532.466,2.683-3.94,6.649-6.206,11.171-8.191-.76-.46-1.185-.768-1.651-.989-3.774-1.822-6.022-4.707-5.845-9,.194-4.687,2.229-8.376,6.611-10.461a16.58,16.58,0,0,1,9.886-1.147c2.2.342,4.378.877,6.535-.2.185-.093.47.01.836.028l1.076,10.27a1.488,1.488,0,0,1-2.37-.4c-.445-.595-.863-1.209-1.325-1.791a8.869,8.869,0,0,0-9.661-2.714,6.162,6.162,0,0,0-4.245,5.091A6.037,6.037,0,0,0,425,394.229a12.082,12.082,0,0,0,6.724,2.036c1.47.081,2.95.016,4.543.016v4.272a101.817,101.817,0,0,0-10.451,2.312,13.639,13.639,0,0,0-9.715,11.009,15.845,15.845,0,0,0,5.326,15.253,12.26,12.26,0,0,0,1.669,1.114c.3-2.312.405-4.485.881-6.573,2.966-12.993,11.355-20.706,23.965-24.067a38.761,38.761,0,0,1,24.335,1.607c2.118.811,4.193,1.908,6.529.579.213-.12.934.243,1.113.555a8.655,8.655,0,0,1,.743,2.085c.723,2.721,1.459,5.441,2.089,8.191a1.953,1.953,0,0,1-.487,1.542,1.166,1.166,0,0,1-1.9-.141c-1.109-1.271-2.308-2.453-3.512-3.627-10.7-10.426-31.11-9.18-40.154,2.542a23.949,23.949,0,0,0-4.6,19.176,1.633,1.633,0,0,0,1.039,1.075c8.656,1.594,17.179-5.872,16.768-14.657A4.352,4.352,0,0,0,449.682,417.809ZM381.468,442.3h-.116c0,3.911.028,7.82-.02,11.722-.011.989.263,1.352,1.3,1.46a57.37,57.37,0,0,0,14.637-.607,25.027,25.027,0,0,0,6.854-2.195,8.334,8.334,0,0,0,4.577-6.23c1.46-7.316-3.005-14.2-10.7-16.012a54.284,54.284,0,0,0-15.5-.956c-1.039.058-1.032.651-1.031,1.387q.013,5.715,0,11.431Zm-.025-18.2a6.475,6.475,0,0,0,1.089.176c2.8-.054,5.611-.195,8.416-.182a17.266,17.266,0,0,0,8.646-2.244,7.885,7.885,0,0,0,4.018-5.422c1.254-5.778-2.007-10.784-7.9-11.519-4.237-.53-8.561-.445-12.845-.667-1.109-.058-1.429.378-1.426,1.467.014,5.683-.048,11.368-.078,17.051,0,.435.049.871.078,1.339Z" transform="translate(-369.461 -377.621)" fill="#fff"/>
  <path id="Path_1317" data-name="Path 1317" d="M1169.185,1049.452c-2.665-2.031-4.139-5.176-6.638-7.458.251,2.425-.839,4.943.631,7.251h-2.118c1.246-1.008,1.257-7.826.055-8.967,1.271-.393,2.069.171,2.824,1.214a69.85,69.85,0,0,0,4.966,6.073c-.208-2.442.86-4.957-.523-7.287h1.744a6.978,6.978,0,0,0-.517,1.779c-.065,2.367-.027,4.738-.027,7.108Z" transform="translate(-1049.263 -946.584)" fill="#fff"/>
  <path id="Path_1318" data-name="Path 1318" d="M468.712,1039.6c2.764.032,4.529,1.765,4.49,4.4a4.891,4.891,0,0,1-5.022,4.927c-2.747,0-4.454-1.881-4.4-4.824C463.837,1041.3,465.741,1039.56,468.712,1039.6Zm3.2,4.747c-.011-2.371-1.088-3.921-2.921-4.206a3.186,3.186,0,0,0-3.926,2.493c-.589,2.316.565,4.976,2.433,5.631C469.986,1049.129,471.929,1047.405,471.914,1044.343Z" transform="translate(-450.46 -946.106)" fill="#fff"/>
  <path id="Path_1319" data-name="Path 1319" d="M1062.865,1039.587c2.8.034,4.47,1.695,4.447,4.412a4.813,4.813,0,0,1-4.992,4.923,4.326,4.326,0,0,1-4.43-4.685C1057.905,1041.383,1059.867,1039.552,1062.865,1039.587Zm3.248,4.858c.03-2.291-1.089-3.976-2.856-4.3-2.847-.525-4.564,1.479-4.045,4.72.373,2.326,1.861,3.74,3.788,3.6,1.88-.136,3.08-1.688,3.111-4.02Z" transform="translate(-960.663 -946.098)" fill="#fff"/>
  <path id="Path_1320" data-name="Path 1320" d="M741.948,1044.169v1.157l-3.2-.565v3.8c2.188.675,3.449.38,4.354-1.189-.034.706-.059,1.222-.09,1.859h-6.156c1.089-1.258.935-7.89-.386-8.947.331-.021.555-.048.78-.049h5.6c-.03.644-.054,1.15-.09,1.937-.976-2.152-2.555-1.247-4.012-1.385v3.726Z" transform="translate(-684.638 -946.651)" fill="#fff"/>
  <path id="Path_1321" data-name="Path 1321" d="M379.2,1041.991c-.508-1.607-1.77-1.621-2.952-1.641a3.366,3.366,0,0,0-3.474,2.464,4.562,4.562,0,0,0,.989,4.566c1.233,1.318,2.781,1.366,4.4,1.059a8.264,8.264,0,0,0,1.14-.4c-.989,1.328-3.854,1.537-5.73.46a4.706,4.706,0,0,1-1.871-5.947c1.054-2.446,3.83-3.276,7.645-2.183C379.3,1040.891,379.254,1041.44,379.2,1041.991Z" transform="translate(-371.049 -946.366)" fill="#fff"/>
  <path id="Path_1322" data-name="Path 1322" d="M828.825,1040.22c-.093.5-.188,1.024-.3,1.661a3.17,3.17,0,0,0-4.2-1.576c-1.914.662-2.853,2.966-2.125,5.213.826,2.558,3.031,3.37,6.482,2.387-1.14,1.326-4.189,1.431-6,.2a4.845,4.845,0,0,1-1.49-5.964C822.356,1039.755,825.319,1038.981,828.825,1040.22Z" transform="translate(-756.99 -946.14)" fill="#fff"/>
  <path id="Path_1323" data-name="Path 1323" d="M573.926,1049.8h-6.012c.847-1.923.6-8.157-.414-8.978h2.6c-.191.374-.578.784-.587,1.2-.059,2.363-.028,4.727-.028,7.061,2.77.611,3.761.322,4.741-1.25C574.128,1048.472,574.03,1049.114,573.926,1049.8Z" transform="translate(-539.531 -947.157)" fill="#fff"/>
  <path id="Path_1324" data-name="Path 1324" d="M919.635,1041.38c-.049.533-.1,1.041-.141,1.553-.448-1.744-1.706-1.116-2.713-1.13-.771,3.048-.378,7.768.763,8.474h-2.95c.919-.744,1.291-5.7.588-8.464-1.027.01-2.3-.633-2.781,1.1-.038-.452-.078-.905-.13-1.523Z" transform="translate(-835.61 -947.638)" fill="#fff"/>
  <path id="Path_1325" data-name="Path 1325" d="M655.05,1040.59h2.26c-.775.966-1.03,5.488-.5,8.344,2.659.542,3.649.263,4.363-1.23.227,1.931.208,1.953-1.695,1.953h-4.131C655.523,1046.58,656.031,1043.57,655.05,1040.59Z" transform="translate(-614.716 -946.96)" fill="#fff"/>
  <path id="Path_1326" data-name="Path 1326" d="M1000.75,1049.831c1.237-.976,1.3-7.861.048-8.951h2.589c-1.037,1.21-.894,8.05.292,8.951Z" transform="translate(-911.594 -947.209)" fill="#fff"/>
</svg>
