<svg xmlns="http://www.w3.org/2000/svg" width="232.558" height="45.031" viewBox="0 0 232.558 45.031">
  <g id="gilobard" transform="translate(0.005)">
    <path id="Path_1327" data-name="Path 1327" d="M1185.682,641.563h-8.292V596.62c2.635.134,5.265.184,7.872.455a3.341,3.341,0,0,1,1.923,1.2c1.763,2.085,3.526,4.184,5.094,6.417,5.276,7.51,10.467,15.076,15.691,22.621.171.247.368.48.7.929V596.815h8.314V641.44c-.033.029-.077.1-.121.1-2.514-.028-5.035.024-7.545-.127-1.656-.1-2.7-1.307-3.6-2.576-1.864-2.644-3.693-5.312-5.546-7.964q-6.891-9.87-13.8-19.734c-.169-.241-.368-.464-.694-.874Z" transform="translate(-996.07 -596.62)" fill="#fff"/>
    <path id="Path_1328" data-name="Path 1328" d="M232.029,642.039c-.383.02-.718.053-1.054.053-5.824,0-11.648.046-17.472-.015a30.146,30.146,0,0,1-9.226-1.128,16.023,16.023,0,0,1-10.916-11.466,34.9,34.9,0,0,1,.348-20.409c2.217-6.838,7.177-10.6,14.235-11.457a77.911,77.911,0,0,1,8.943-.394c5.013-.059,10.025-.015,15.115-.015v7.651c-.368.022-.758.066-1.15.066-6.1.02-12.208.063-18.311.041-5.966-.024-9.675,3.384-10.842,9.039a27.786,27.786,0,0,0,.1,11.575,13.494,13.494,0,0,0,2.541,5.246,8.615,8.615,0,0,0,6.829,3.312c3.945.2,7.9.16,11.854.219a1.561,1.561,0,0,0,.344-.094c.02-.285.061-.583.061-.883,0-2.957-.02-5.914.018-8.869.009-.766-.208-1.021-1-1.016-3.829.037-7.661.017-11.492.017h-1.167v-7.585h22.234Z" transform="translate(-192.01 -597.088)" fill="#fff"/>
    <path id="Path_1329" data-name="Path 1329" d="M693.63,642.139V597.306c.346-.018.646-.05.946-.05,6.634,0,13.266-.031,19.9.033a24.222,24.222,0,0,1,8.281,1.2c5.55,2.068,8.833,6.256,10.586,11.753a33.085,33.085,0,0,1,1.047,12.379,28.219,28.219,0,0,1-1.732,8.456c-2.457,6.349-6.993,10.049-13.827,10.763-1.882.2-3.783.28-5.679.291-6.072.037-12.145.013-18.217.013Zm8.518-22.512v14.651c0,.445-.138.968.633.951,4.446-.09,8.9-.017,13.336-.282a8.472,8.472,0,0,0,7.752-5.68,21.713,21.713,0,0,0,1.386-5.566,28.474,28.474,0,0,0-1.338-13.045,8.991,8.991,0,0,0-8.735-6.361c-4.008-.149-8.025-.11-12.036-.21-.872-.022-1.018.3-1.012,1.076C702.163,609.983,702.148,614.806,702.148,619.627Z" transform="translate(-601.329 -597.133)" fill="#fff"/>
    <path id="Path_1330" data-name="Path 1330" d="M901.47,642.013c2.911-6.823,5.754-13.479,8.588-20.137q4.38-10.29,8.75-20.584c.826-1.932,2.024-3.54,4.232-3.991a13.614,13.614,0,0,1,2.6-.107c1.472-.015,2.93.033,4.391-.022a1.083,1.083,0,0,1,1.209.835q8.078,19.85,16.2,39.681c.57,1.4,1.135,2.8,1.709,4.2-.184.085-.265.153-.346.155-2.179.02-4.357.068-6.536.039a3.149,3.149,0,0,1-3.02-2.236c-1.058-2.654-2.168-5.289-3.178-7.961a1.547,1.547,0,0,0-1.741-1.189c-5.668.057-11.337.068-17,0a2.518,2.518,0,0,0-2.677,1.682c-1.214,2.893-2.477,5.765-3.649,8.674a1.4,1.4,0,0,1-1.579,1.041c-2.3-.062-4.6-.02-6.914-.024C902.208,642.073,901.908,642.038,901.47,642.013Zm24.076-36.162c-2.547,6.128-4.983,11.987-7.449,17.921H932.7Z" transform="translate(-770.924 -597.069)" fill="#fff"/>
    <path id="Path_1331" data-name="Path 1331" d="M512.563,597.61h8.568v1.176q0,14.419.009,28.839a14.26,14.26,0,0,0,.224,2.5c.552,3.014,2.468,4.527,5.973,4.582,4.6.072,9.214.05,13.819.072.4,0,.8.037,1.249.057v7.512c-.355.029-.71.086-1.065.086-5.542,0-11.083.018-16.626,0-7.293-.024-10.986-4.389-11.911-10.673a27.084,27.084,0,0,1-.23-3.9q-.028-14.467-.011-28.934Z" transform="translate(-453.575 -597.428)" fill="#fff"/>
    <path id="Path_1332" data-name="Path 1332" d="M451.6,642.391H443V597.65h8.606Z" transform="translate(-396.818 -597.46)" fill="#fff"/>
    <path id="Path_1333" data-name="Path 1333" d="M1411.37,601.411a3.96,3.96,0,0,1,4.078-4.131,4.033,4.033,0,0,1,4.1,4.232,3.977,3.977,0,0,1-4.208,4.107A3.906,3.906,0,0,1,1411.37,601.411Zm7.335.018a3.265,3.265,0,0,0-3.229-3.478,3.52,3.52,0,0,0-.024,7.031,3.3,3.3,0,0,0,3.253-3.553Z" transform="translate(-1186.995 -597.158)" fill="#fff"/>
    <path id="Path_1334" data-name="Path 1334" d="M1427.184,612.309h-.508v1.376h-.937V609.8h1.529a1.708,1.708,0,0,1,1.082.307,1.039,1.039,0,0,1,.39.867,1.267,1.267,0,0,1-.164.672,1.167,1.167,0,0,1-.515.432l.812,1.57v.04h-1Zm-.508-.719h.593a.533.533,0,0,0,.4-.142.639.639,0,0,0,0-.786.527.527,0,0,0-.4-.143h-.593Z" transform="translate(-1198.721 -607.37)" fill="#fff"/>
  </g>
</svg>
