<svg xmlns="http://www.w3.org/2000/svg" width="39.305" height="39.307" viewBox="0 0 39.305 39.307">
  <g id="telephone" transform="translate(-0.011)">
    <g id="Group_394" data-name="Group 394" transform="translate(0.011 0)">
      <path id="Path_1345" data-name="Path 1345" d="M38.305,28.991,33.419,24.1a3.459,3.459,0,0,0-4.886,0l-2.221,2.221a2.621,2.621,0,0,1-3.7,0l-9.627-9.635a2.616,2.616,0,0,1,0-3.7L15.2,10.768a3.453,3.453,0,0,0,0-4.888l-4.885-4.87a3.458,3.458,0,0,0-4.883,0L3.654,2.772a12.474,12.474,0,0,0,0,17.62L18.908,35.655a12.453,12.453,0,0,0,17.621,0l1.777-1.777A3.459,3.459,0,0,0,38.305,28.991ZM7.06,2.64a1.153,1.153,0,0,1,1.63,0l4.885,4.87a1.151,1.151,0,0,1,0,1.629l-.814.814L6.25,3.443ZM20.537,34.026,5.283,18.764A10.126,10.126,0,0,1,4.648,5.1L11.14,11.59a4.916,4.916,0,0,0,.214,6.729l9.627,9.635h0a4.916,4.916,0,0,0,6.729.214L34.2,34.661A10.106,10.106,0,0,1,20.537,34.026Zm16.14-1.777-.814.814-6.515-6.515.814-.814a1.153,1.153,0,0,1,1.629,0l4.886,4.886A1.153,1.153,0,0,1,36.677,32.249Z" transform="translate(-0.011 0)" fill="#fff"/>
    </g>
  </g>
</svg>
