<svg id="fabric" xmlns="http://www.w3.org/2000/svg" width="126.095" height="120.49" viewBox="0 0 126.095 120.49">
  <path id="Path_1293" data-name="Path 1293" d="M81.18,434.463A2.463,2.463,0,0,0,78.717,432H62.463a2.463,2.463,0,1,0,0,4.926H78.717A2.463,2.463,0,0,0,81.18,434.463Z" transform="translate(-45.223 -331.212)" fill="#fff"/>
  <path id="Path_1294" data-name="Path 1294" d="M123.632,24h-72.9V16.473C50.734,7.39,43,0,33.494,0H17.24C7.734,0,0,7.39,0,16.473v25.18a2.41,2.41,0,0,0,2.463,2.353,2.41,2.41,0,0,0,2.463-2.353V16.473c0-6.488,5.524-11.767,12.314-11.767H33.494c6.79,0,12.314,5.279,12.314,11.767V92.5a17.585,17.585,0,0,0-12.314-4.96H17.24A17.549,17.549,0,0,0,5.048,92.369c-.042.04-.081.082-.122.123V62.833A2.41,2.41,0,0,0,2.463,60.48,2.41,2.41,0,0,0,0,62.833v41.183C0,113.1,7.734,120.49,17.24,120.49H123.632a2.41,2.41,0,0,0,2.463-2.353V26.357A2.41,2.41,0,0,0,123.632,24ZM85.67,28.711l35.5,33.921V85.926L61.292,28.711Zm35.5,27.265L92.636,28.711h28.533ZM54.326,28.711l66.843,63.872v23.2h-.1L50.734,48.574V28.711Zm35.4,87.073L50.734,78.525V55.231l63.37,60.553Zm-84.8-11.767A12.043,12.043,0,0,1,17.24,92.25H33.494c6.79,0,12.314,5.279,12.314,11.767a12.043,12.043,0,0,1-12.314,11.767H17.24C10.45,115.783,4.926,110.5,4.926,104.017Zm45.808,0V85.182l32.023,30.6h-37.2a16,16,0,0,0,5.178-11.767Z" transform="translate(0)" fill="#fff"/>
  <circle id="Ellipse_1" data-name="Ellipse 1" cx="2.5" cy="2.5" r="2.5" transform="translate(0.195 50.497)" fill="#fff"/>
</svg>
