<svg id="Component_12_1" data-name="Component 12 – 1" xmlns="http://www.w3.org/2000/svg" width="16" height="14" viewBox="0 0 16 14">
  <rect id="Rectangle_393" data-name="Rectangle 393" width="16" height="14" fill="none"/>
  <path id="Path_2" data-name="Path 2" d="M42.247,12.879a7.754,7.754,0,0,0,7.824-7.824V4.682a6.057,6.057,0,0,0,1.341-1.416,6.185,6.185,0,0,1-1.565.447,2.9,2.9,0,0,0,1.192-1.49,6.834,6.834,0,0,1-1.714.671A2.661,2.661,0,0,0,47.314,2a2.8,2.8,0,0,0-2.757,2.757,1.453,1.453,0,0,0,.075.6,7.7,7.7,0,0,1-5.663-2.906A2.854,2.854,0,0,0,38.6,3.863a2.96,2.96,0,0,0,1.192,2.31A2.512,2.512,0,0,1,38.522,5.8h0a2.723,2.723,0,0,0,2.235,2.682,2.3,2.3,0,0,1-.745.075,1.268,1.268,0,0,1-.522-.075A2.823,2.823,0,0,0,42.1,10.42a5.626,5.626,0,0,1-3.427,1.192A2.063,2.063,0,0,1,38,11.537a7.033,7.033,0,0,0,4.247,1.341" transform="translate(-38 -0.001)" fill="#fff" fill-rule="evenodd"/>
</svg>
