<svg xmlns="http://www.w3.org/2000/svg" width="1564.161" height="471.944" viewBox="0 0 1564.161 471.944">
  <g id="Group_502" data-name="Group 502" transform="translate(1767.988 -3100.538)" opacity="0.06">
    <path id="Path_1302" data-name="Path 1302" d="M804.917,911.01c-129.892-.858-237.79-109.75-235.846-237.977,2.068-131.122,109.369-235.1,241.495-233.952,126.891,1.1,233.2,110.1,231.884,237.77C1041.167,805.7,933.464,911.859,804.917,911.01ZM944.129,546.576c-73.248-86.053-216.493-77.239-275.041.2,5.658,1.366,10.789,2.761,15.993,3.859,43.879,9.237,66.2,36.318,66.5,80.859.072,9.765.714,19.581-.155,29.275-1.034,11.078,4.138,15.96,14.234,16.55,19.426,1.2,38.945,3.58,58.289,2.659,36.112-1.717,36.07-2.555,36.091-39.07v-9.155c.651-44.8,22.922-71.984,66.451-81.128C931.695,549.545,936.856,548.252,944.129,546.576ZM846.966,789.364c21.288,8.574,42.183,16.416,62.582,25.4,14.792,6.517,24.825,2.141,35.024-9.393,44.4-50.189,60.472-107.775,46.466-173.295-9.6-44.9-12.01-45.959-56.542-35.677-20.687,4.78-27.391,12.817-27.639,34.415-.258,21.992,1.139,44.066-.548,65.924-.89,11.492-4.417,24.288-10.943,33.546C881.443,750.1,864.769,767.992,846.966,789.364Zm-81.4,0c-16.891-19.531-30.225-35.305-43.941-50.687-12.848-14.481-18.133-30.816-17-50.283,1.18-20.046,1.76-40.394-.434-60.275-1.034-9.589-6.879-22.985-14.409-26.6-14.4-6.91-31.478-8.575-47.657-11.129-2.855-.456-8.005,4.582-9.9,8.275-33.628,64.754-13.7,165.071,42.659,213.358,4.292,3.693,12.713,6.547,17.584,4.912,24.051-8.078,47.554-17.75,73.062-27.546Zm104.445,62.488c-20.1-10.716-38.211-20.594-56.583-30-3.339-1.706-8.637-3.051-11.533-1.592-19.933,9.993-39.462,20.782-59.717,31.622C777.391,869.147,834.895,869.158,870.013,851.852Zm-64-91.752,33.639-32.2H771.868Z" transform="translate(-2337.033 2661.467)" fill="#262626"/>
    <path id="Path_1303" data-name="Path 1303" d="M459.6,1124.7v-29.232H373.056v28.891H338.1v-14.317c0-27.639-.259-55.277.083-82.907.3-23.554,16.923-40.9,40.342-41.264,36.2-.556,72.409-.154,108.614-.112a51.386,51.386,0,0,1,6.207.815V1124.7Zm-85.639-65.727h84.728v-37.487a13.015,13.015,0,0,0-2.989-1.035q-24.515-.163-49.021-.235c-36.515,0-36.515,0-33.422,37.021A8.982,8.982,0,0,0,373.956,1058.971Z" transform="translate(-1497.639 2283.643)" fill="#262626"/>
    <path id="Path_1304" data-name="Path 1304" d="M523.42,985.692h62.416c15.95,0,31.9-.1,47.852,0,27.091.227,43.684,16.726,44.015,43.579,0,3.89-.063,7.778,0,11.668.5,22.353-10.955,36.277-34.933,44.925l40.549,35.77c-.642,1.2-1.282,2.4-1.933,3.589-13.345,0-26.7.248-40.033-.206-2.627-.093-5.492-2.513-7.665-4.51-5.173-4.739-10.923-9.207-14.688-14.948-15.164-23.079-37.321-22.757-62.148-19.032v38.1H523.42Zm34.136,64.95h70.507c14.76,0,14.935-.26,14.956-15.05,0-15.207-.113-15.33-15.847-15.362H557.577Z" transform="translate(-1491.259 2283.647)" fill="#262626"/>
    <path id="Path_1305" data-name="Path 1305" d="M704.61,985.694h76.173c12.414,0,24.9-.319,37.333.093,23.625.8,40.135,17.326,40.6,40.921.393,19.819.487,39.681-.114,59.489a40.116,40.116,0,0,1-36.5,38.884c-3.464.342-6.992.208-10.489.208H704.61Zm34.456,34.558v70.341c26.387,0,51.929.238,77.448-.361,2.667-.063,7.373-4.956,7.487-7.749.694-17.831.746-35.717,0-53.53-.133-3.019-5.243-8.276-8.16-8.347C790.652,1019.974,765.474,1020.252,739.066,1020.252Z" transform="translate(-1485.023 2283.643)" fill="#262626"/>
    <path id="Path_1306" data-name="Path 1306" d="M962.451,985.7c11.276,0,22.55-.146,33.826,0,25.642.4,42.482,16.963,42.814,42.337q.371,27.4,0,54.825c-.373,24.67-17.224,41.637-42.019,42.007q-35.563.527-71.138,0c-24.709-.4-41.262-17.481-41.519-42.348q-.281-27.413,0-54.826c.278-24.742,16.942-41.377,41.872-41.976C938.349,985.485,950.4,985.7,962.451,985.7Zm-1.428,104.579c10.892,0,21.785-.3,32.657.1,8.14.289,11.038-3.166,10.883-11.087-.341-16.324-.239-32.657,0-48.981.081-6.723-2.432-10.157-9.475-10.116q-33.236.157-66.472,0c-6.931,0-9.858,3.25-9.837,9.941.072,16.717.113,33.444,0,50.149-.073,7.561,3.579,10.292,10.831,10.085C940.024,1090.065,950.534,1090.283,961.023,1090.283Z" transform="translate(-1478.839 2283.645)" fill="#262626"/>
    <path id="Path_1307" data-name="Path 1307" d="M1185.311,1074.5V986.576h33.659v137.742c-17.956,1.852-33.722,2.99-48.813-13.448-22.23-24.246-48.422-44.852-70.34-64.63v78.1H1065.68V986.793c18.474-2.421,34.745-3.227,48.917,14.089,18.622,22.758,40.57,42.949,61.095,64.217C1178.174,1067.665,1180.832,1070.1,1185.311,1074.5Z" transform="translate(-1472.597 2283.64)" fill="#262626"/>
    <path id="Path_1309" data-name="Path 1309" d="M1233.75,1000.94a15.979,15.979,0,0,1,1.921-7.716,14.427,14.427,0,0,1,5.328-5.607,14.235,14.235,0,0,1,14.708,0,14.468,14.468,0,0,1,5.33,5.608,16.415,16.415,0,0,1,0,15.515,14.635,14.635,0,0,1-5.337,5.607,14.122,14.122,0,0,1-14.669,0,14.629,14.629,0,0,1-5.318-5.607A15.922,15.922,0,0,1,1233.75,1000.94Zm2.5,0a13.445,13.445,0,0,0,1.542,6.332,12.07,12.07,0,0,0,4.341,4.727,11.709,11.709,0,0,0,12.416,0,12.1,12.1,0,0,0,4.352-4.706,13.842,13.842,0,0,0,0-12.7,11.982,11.982,0,0,0-4.364-4.7,11.372,11.372,0,0,0-6.2-1.76,11.578,11.578,0,0,0-6.083,1.686,11.97,11.97,0,0,0-4.406,4.646A13.343,13.343,0,0,0,1236.252,1000.94Zm18.7,2.732a6.22,6.22,0,0,1-1.8,4.8,7.241,7.241,0,0,1-5.093,1.665,6.65,6.65,0,0,1-5.232-2.193,8.579,8.579,0,0,1-1.945-5.9V999.72a8.27,8.27,0,0,1,1.965-5.762,6.666,6.666,0,0,1,5.173-2.193,7.167,7.167,0,0,1,5.173,1.7,6.266,6.266,0,0,1,1.778,4.768h-3.207a3.616,3.616,0,0,0-.952-2.836,3.973,3.973,0,0,0-2.754-.859,3.436,3.436,0,0,0-2.925,1.4,6.2,6.2,0,0,0-1.036,3.713v2.526a6.145,6.145,0,0,0,1.036,3.8,3.443,3.443,0,0,0,2.937,1.387,4.019,4.019,0,0,0,2.753-.827,3.7,3.7,0,0,0,.929-2.856Z" transform="translate(-1466.813 2283.645)" fill="#262626"/>
  </g>
</svg>
