<svg xmlns="http://www.w3.org/2000/svg" width="49.193" height="54.977" viewBox="0 0 49.193 54.977">
  <g id="Group_364" data-name="Group 364" transform="translate(-1470.409 -1057.063)">
    <g id="Group_330" data-name="Group 330" transform="translate(1470.409 1057.063)">
      <path id="Path_1187" data-name="Path 1187" d="M1558.046,1254.886l4.041,4.041-4.376,4.376a55.075,55.075,0,0,0,5.632,4.917,55.327,55.327,0,0,0,5.541-4.825l-12.371-12.371,4.04-4.04,1.534,1.534,1.164,1.164,4.041,4.041,1.164,1.164,4.248,4.247,3.593,3.593a56.443,56.443,0,0,1-3.838,4.243,60.567,60.567,0,0,1-7.644,6.459l-1.473,1.052-1.472-1.052a60.481,60.481,0,0,1-7.735-6.551,56.321,56.321,0,0,1-3.828-4.252l3.594-3.594Z" transform="translate(-1538.746 -1219.504)" fill="#118e61"/>
      <path id="Path_1188" data-name="Path 1188" d="M1559.2,1074.311l-4.041-4.041,4.439-4.439-5.512-3-5.63,3.063,5.539,5.539,4.04,4.041,1.165,1.164,1.534,1.534-4.041,4.04-1.534-1.534-1.164-1.165-4.04-4.04-1.165-1.164-5.569-5.568-3.736-3.737,5.234-2.846,9.366-5.1,9.249,5.031,5.234,2.848-3.736,3.736Z" transform="translate(-1529.495 -1057.063)" fill="#118e61"/>
      <path id="Path_1189" data-name="Path 1189" d="M1475.4,1130.769l3.736,3.736,6.709,6.71-4.041,4.04-5.687-5.687a45.112,45.112,0,0,0,2.174,7.394q.572,1.475,1.234,2.9l2.279-2.28,1.164-1.165,4.041-4.04,1.164-1.164,1.534-1.534,4.04,4.04-2.7,2.7-4.04,4.041-1.165,1.164-3.482,3.482-3.658,3.658a53.759,53.759,0,0,1-2.967-5.114,52.908,52.908,0,0,1-2.26-5.086,43.371,43.371,0,0,1-3.046-13.547l-.018-1.153-.006-.38Z" transform="translate(-1470.409 -1120.104)" fill="#118e61"/>
      <path id="Path_1190" data-name="Path 1190" d="M1655.72,1151.248l4.041-4.04,2.4,2.4q.694-1.485,1.291-3.026a45.109,45.109,0,0,0,2.22-7.623l-5.916,5.916-1.165,1.164-4.04,4.041-1.164,1.164-1.534,1.534-4.041-4.04,1.534-1.534,5.205-5.2,1.164-1.164,10.51-10.51,5.11,2.78,0,.194-.021,1.338a43.362,43.362,0,0,1-3.046,13.547,52.747,52.747,0,0,1-2.323,5.207,53.689,53.689,0,0,1-2.977,5.1l-3.656-3.656Z" transform="translate(-1622.147 -1119.729)" fill="#118e61"/>
    </g>
  </g>
</svg>
